<?xml version="1.0" encoding="UTF-8" standalone="no"?>
<!DOCTYPE svg PUBLIC "-//W3C//DTD SVG 1.1//EN"
 "http://www.w3.org/Graphics/SVG/1.1/DTD/svg11.dtd">
<!-- Generated by graphviz version 2.40.1 (20161225.0304)
 -->
<!-- Title: dependencies Pages: 1 -->
<svg width="504pt" height="284pt"
 viewBox="0.00 0.00 504.00 284.00" xmlns="http://www.w3.org/2000/svg" xmlns:xlink="http://www.w3.org/1999/xlink">
<g id="graph0" class="graph" transform="scale(1 1) rotate(0) translate(4 280)">
<title>dependencies</title>
<polygon fill="#ffffff" stroke="transparent" points="-4,4 -4,-280 500,-280 500,4 -4,4"/>
<text text-anchor="start" x="227.0091" y="-42.4" font-family="sans-serif" font-weight="bold" font-size="14.00" fill="#000000">Legend</text>
<polygon fill="#ffffb3" stroke="transparent" points="14,-10 14,-30 34,-30 34,-10 14,-10"/>
<text text-anchor="start" x="37.629" y="-15.4" font-family="sans-serif" font-size="14.00" fill="#000000"> &#160;Declarations</text>
<polygon fill="#8dd3c7" stroke="transparent" points="127,-10 127,-30 147,-30 147,-10 127,-10"/>
<text text-anchor="start" x="150.7251" y="-15.4" font-family="sans-serif" font-size="14.00" fill="#000000"> &#160;Module</text>
<polygon fill="#80b1d3" stroke="transparent" points="213,-10 213,-30 233,-30 233,-10 213,-10"/>
<text text-anchor="start" x="236.7812" y="-15.4" font-family="sans-serif" font-size="14.00" fill="#000000"> &#160;Bootstrap</text>
<polygon fill="#fdb462" stroke="transparent" points="310,-10 310,-30 330,-30 330,-10 310,-10"/>
<text text-anchor="start" x="333.6732" y="-15.4" font-family="sans-serif" font-size="14.00" fill="#000000"> &#160;Providers</text>
<polygon fill="#fb8072" stroke="transparent" points="406,-10 406,-30 426,-30 426,-10 406,-10"/>
<text text-anchor="start" x="429.7258" y="-15.4" font-family="sans-serif" font-size="14.00" fill="#000000"> &#160;Exports</text>
<g id="clust1" class="cluster">
<title>cluster_SirusStylusModule</title>
<polygon fill="none" stroke="#000000" stroke-dasharray="1,5" points="106,-70 106,-268 390,-268 390,-70 106,-70"/>
</g>
<g id="clust2" class="cluster">
<title>cluster_SirusStylusModule_declarations</title>
<polygon fill="none" stroke="#000000" points="250,-78 250,-130 382,-130 382,-78 250,-78"/>
</g>
<g id="clust4" class="cluster">
<title>cluster_SirusStylusModule_imports</title>
<polygon fill="none" stroke="#000000" points="114,-78 114,-130 242,-130 242,-78 114,-78"/>
</g>
<g id="clust5" class="cluster">
<title>cluster_SirusStylusModule_exports</title>
<polygon fill="none" stroke="#000000" points="180,-208 180,-260 316,-260 316,-208 180,-208"/>
</g>
<!-- StylusComponent -->
<g id="node1" class="node">
<title>StylusComponent</title>
<polygon fill="#ffffb3" stroke="#000000" points="374.3413,-122 257.6587,-122 257.6587,-86 374.3413,-86 374.3413,-122"/>
<text text-anchor="middle" x="316" y="-99.8" font-family="Times,serif" font-size="14.00" fill="#000000">StylusComponent</text>
</g>
<!-- SirusStylusModule -->
<g id="node2" class="node">
<title>SirusStylusModule</title>
<polygon fill="#8dd3c7" stroke="#000000" points="309.8371,-187 306.8371,-191 285.8371,-191 282.8371,-187 186.1629,-187 186.1629,-151 309.8371,-151 309.8371,-187"/>
<text text-anchor="middle" x="248" y="-164.8" font-family="Times,serif" font-size="14.00" fill="#000000">SirusStylusModule</text>
</g>
<!-- StylusComponent&#45;&gt;SirusStylusModule -->
<g id="edge1" class="edge">
<title>StylusComponent&#45;&gt;SirusStylusModule</title>
<path fill="none" stroke="#000000" d="M283.749,-122.1061C283.749,-122.1061 283.749,-140.991 283.749,-140.991"/>
<polygon fill="#000000" stroke="#000000" points="280.249,-140.9909 283.749,-150.991 287.249,-140.991 280.249,-140.9909"/>
</g>
<!-- StylusComponent  -->
<g id="node4" class="node">
<title>StylusComponent </title>
<polygon fill="#fb8072" stroke="#000000" points="307.8409,-252 188.1591,-252 188.1591,-216 307.8409,-216 307.8409,-252"/>
<text text-anchor="middle" x="248" y="-229.8" font-family="Times,serif" font-size="14.00" fill="#000000">StylusComponent </text>
</g>
<!-- SirusStylusModule&#45;&gt;StylusComponent  -->
<g id="edge3" class="edge">
<title>SirusStylusModule&#45;&gt;StylusComponent </title>
<path fill="none" stroke="#000000" stroke-dasharray="5,2" d="M248,-187.1061C248,-187.1061 248,-205.991 248,-205.991"/>
<polygon fill="#000000" stroke="#000000" points="244.5001,-205.9909 248,-215.991 251.5001,-205.991 244.5001,-205.9909"/>
</g>
<!-- CommonModule -->
<g id="node3" class="node">
<title>CommonModule</title>
<polygon fill="#8dd3c7" stroke="#000000" points="233.6681,-122 230.6681,-126 209.6681,-126 206.6681,-122 122.3319,-122 122.3319,-86 233.6681,-86 233.6681,-122"/>
<text text-anchor="middle" x="178" y="-99.8" font-family="Times,serif" font-size="14.00" fill="#000000">CommonModule</text>
</g>
<!-- CommonModule&#45;&gt;SirusStylusModule -->
<g id="edge2" class="edge">
<title>CommonModule&#45;&gt;SirusStylusModule</title>
<path fill="none" stroke="#000000" d="M210.0828,-122.1061C210.0828,-122.1061 210.0828,-140.991 210.0828,-140.991"/>
<polygon fill="#000000" stroke="#000000" points="206.5828,-140.9909 210.0828,-150.991 213.5828,-140.991 206.5828,-140.9909"/>
</g>
</g>
</svg>
